<svg width="151" height="30" viewBox="0 0 151 30" fill="none" xmlns="http://www.w3.org/2000/svg">
<g id="Routiner">
<path d="M0.850586 28.6826V1.43413H11.0688C13.1621 1.43413 14.9183 1.7978 16.3375 2.52514C17.7656 3.25247 18.8433 4.27252 19.5706 5.58527C20.3068 6.88916 20.6749 8.41035 20.6749 10.1489C20.6749 11.8962 20.3024 13.413 19.5573 14.6992C18.8211 15.9764 17.7345 16.9654 16.2976 17.6662C14.8607 18.358 13.0956 18.7039 11.0022 18.7039H3.72445V14.606H10.337C11.5611 14.606 12.5634 14.4375 13.3439 14.1004C14.1245 13.7545 14.701 13.2533 15.0736 12.597C15.455 11.9317 15.6457 11.1157 15.6457 10.1489C15.6457 9.18204 15.455 8.35713 15.0736 7.67415C14.6921 6.98229 14.1112 6.45896 13.3306 6.10416C12.5501 5.7405 11.5433 5.55866 10.3104 5.55866H5.78671V28.6826H0.850586ZM14.9272 16.3357L21.6728 28.6826H16.1646L9.5387 16.3357H14.9272Z" fill="white"/>
<path d="M33.6273 29.0818C31.6315 29.0818 29.9019 28.6427 28.4383 27.7646C26.9748 26.8865 25.8395 25.658 25.0323 24.0791C24.234 22.5003 23.8348 20.6553 23.8348 18.5443C23.8348 16.4332 24.234 14.5838 25.0323 12.9961C25.8395 11.4084 26.9748 10.1755 28.4383 9.29735C29.9019 8.41922 31.6315 7.98016 33.6273 7.98016C35.623 7.98016 37.3526 8.41922 38.8162 9.29735C40.2797 10.1755 41.4106 11.4084 42.2089 12.9961C43.0161 14.5838 43.4197 16.4332 43.4197 18.5443C43.4197 20.6553 43.0161 22.5003 42.2089 24.0791C41.4106 25.658 40.2797 26.8865 38.8162 27.7646C37.3526 28.6427 35.623 29.0818 33.6273 29.0818ZM33.6539 25.2234C34.736 25.2234 35.6407 24.9262 36.3681 24.3319C37.0954 23.7288 37.6365 22.9216 37.9913 21.9104C38.355 20.8993 38.5368 19.7728 38.5368 18.531C38.5368 17.2803 38.355 16.1494 37.9913 15.1382C37.6365 14.1182 37.0954 13.3066 36.3681 12.7034C35.6407 12.1003 34.736 11.7987 33.6539 11.7987C32.5451 11.7987 31.6227 12.1003 30.8865 12.7034C30.1591 13.3066 29.6136 14.1182 29.2499 15.1382C28.8951 16.1494 28.7178 17.2803 28.7178 18.531C28.7178 19.7728 28.8951 20.8993 29.2499 21.9104C29.6136 22.9216 30.1591 23.7288 30.8865 24.3319C31.6227 24.9262 32.5451 25.2234 33.6539 25.2234Z" fill="white"/>
<path d="M60.5332 20.0877V8.24626H65.3495V28.6826H60.6795V25.0504H60.4666C60.0054 26.1946 59.247 27.1304 58.1915 27.8577C57.1448 28.5851 55.8543 28.9487 54.3198 28.9487C52.9804 28.9487 51.7963 28.6516 50.7673 28.0573C49.7473 27.4541 48.949 26.5805 48.3725 25.4362C47.7959 24.2831 47.5076 22.8906 47.5076 21.2585V8.24626H52.324V20.5134C52.324 21.8084 52.6788 22.8373 53.3884 23.6002C54.098 24.363 55.0294 24.7444 56.1824 24.7444C56.892 24.7444 57.5795 24.5714 58.2447 24.2255C58.91 23.8796 59.4555 23.3651 59.8812 22.6821C60.3158 21.9903 60.5332 21.1254 60.5332 20.0877Z" fill="white"/>
<path d="M80.5072 8.24626V11.9716H68.7589V8.24626H80.5072ZM71.6594 3.35004H76.4758V22.5358C76.4758 23.1833 76.5733 23.68 76.7685 24.0259C76.9725 24.363 77.2386 24.5936 77.5668 24.7178C77.895 24.8419 78.2586 24.904 78.6578 24.904C78.9594 24.904 79.2343 24.8819 79.4827 24.8375C79.7399 24.7932 79.9351 24.7532 80.0681 24.7178L80.8797 28.4831C80.6225 28.5718 80.2544 28.6693 79.7754 28.7758C79.3053 28.8822 78.7287 28.9443 78.0458 28.962C76.8394 28.9975 75.7529 28.8157 74.7861 28.4165C73.8192 28.0085 73.052 27.3788 72.4843 26.5272C71.9255 25.6757 71.6505 24.6113 71.6594 23.3341V3.35004Z" fill="white"/>
<path d="M84.5352 28.6826V8.24626H89.3516V28.6826H84.5352ZM86.9567 5.34578C86.1939 5.34578 85.5375 5.09299 84.9876 4.5874C84.4377 4.07294 84.1627 3.45648 84.1627 2.73801C84.1627 2.01068 84.4377 1.39422 84.9876 0.888628C85.5375 0.374171 86.1939 0.116943 86.9567 0.116943C87.7284 0.116943 88.3848 0.374171 88.9259 0.888628C89.4758 1.39422 89.7508 2.01068 89.7508 2.73801C89.7508 3.45648 89.4758 4.07294 88.9259 4.5874C88.3848 5.09299 87.7284 5.34578 86.9567 5.34578Z" fill="white"/>
<path d="M99.1208 16.7082V28.6826H94.3044V8.24626H98.9079V11.7188H99.1474C99.6175 10.5746 100.367 9.66545 101.396 8.99133C102.434 8.31722 103.715 7.98016 105.241 7.98016C106.651 7.98016 107.88 8.28174 108.926 8.8849C109.982 9.48805 110.798 10.3617 111.375 11.506C111.96 12.6502 112.248 14.0383 112.239 15.6704V28.6826H107.423V16.4155C107.423 15.0495 107.068 13.9807 106.359 13.209C105.658 12.4373 104.687 12.0515 103.445 12.0515C102.602 12.0515 101.853 12.2377 101.196 12.6103C100.549 12.9739 100.039 13.5017 99.6663 14.1936C99.3026 14.8854 99.1208 15.7236 99.1208 16.7082Z" fill="white"/>
<path d="M126.183 29.0818C124.134 29.0818 122.364 28.656 120.874 27.8045C119.393 26.9441 118.253 25.7289 117.455 24.159C116.657 22.5801 116.258 20.7219 116.258 18.5842C116.258 16.482 116.657 14.6371 117.455 13.0493C118.262 11.4527 119.389 10.211 120.834 9.32396C122.28 8.42809 123.979 7.98016 125.93 7.98016C127.19 7.98016 128.378 8.18417 129.496 8.59219C130.622 8.99133 131.616 9.61223 132.476 10.4549C133.345 11.2975 134.028 12.3708 134.525 13.6747C135.022 14.9697 135.27 16.5131 135.27 18.3048V19.7816H118.519V16.5352H130.653C130.645 15.6128 130.445 14.7923 130.055 14.0738C129.664 13.3465 129.119 12.7744 128.418 12.3575C127.726 11.9406 126.919 11.7322 125.997 11.7322C125.012 11.7322 124.147 11.9716 123.402 12.4506C122.657 12.9207 122.076 13.5416 121.659 14.3133C121.251 15.0761 121.043 15.9143 121.034 16.8279V19.6619C121.034 20.8505 121.251 21.8705 121.686 22.722C122.121 23.5647 122.728 24.2122 123.509 24.6645C124.289 25.108 125.203 25.3298 126.25 25.3298C126.95 25.3298 127.584 25.2322 128.152 25.0371C128.72 24.8331 129.212 24.5359 129.629 24.1457C130.046 23.7554 130.361 23.272 130.574 22.6954L135.071 23.201C134.787 24.3896 134.246 25.4274 133.447 26.3144C132.658 27.1925 131.647 27.8755 130.414 28.3633C129.181 28.8423 127.771 29.0818 126.183 29.0818Z" fill="white"/>
<path d="M139.345 28.6826V8.24626H144.015V11.6523H144.228C144.6 10.4726 145.239 9.56345 146.144 8.92481C147.057 8.2773 148.1 7.95355 149.27 7.95355C149.536 7.95355 149.834 7.96686 150.162 7.99346C150.499 8.0112 150.778 8.04225 151 8.0866V12.5171C150.796 12.4462 150.472 12.3841 150.029 12.3309C149.594 12.2688 149.173 12.2377 148.765 12.2377C147.887 12.2377 147.097 12.4284 146.396 12.8098C145.705 13.1824 145.159 13.7013 144.76 14.3665C144.361 15.0318 144.161 15.799 144.161 16.6683V28.6826H139.345Z" fill="white"/>
</g>
</svg>
